<svg xmlns="http://www.w3.org/2000/svg" viewBox="0 0 400 400">
  <rect width="400" height="400" fill="#0a1628"/>
  
  <!-- Layered waves -->
  <path d="M 0 350 Q 100 320 200 350 T 400 350 L 400 400 L 0 400 Z" fill="#0d1d35"/>
  <path d="M 0 320 Q 100 280 200 320 T 400 320 L 400 400 L 0 400 Z" fill="#102542"/>
  <path d="M 0 280 Q 100 250 200 280 T 400 280 L 400 400 L 0 400 Z" fill="#142d50"/>
  <path d="M 0 250 Q 100 210 200 250 T 400 250 L 400 400 L 0 400 Z" fill="#18355e"/>
  <path d="M 0 210 Q 100 180 200 210 T 400 210 L 400 400 L 0 400 Z" fill="#1c3d6c"/>
  <path d="M 0 180 Q 100 140 200 180 T 400 180 L 400 400 L 0 400 Z" fill="#20457a"/>
</svg>
