<svg xmlns="http://www.w3.org/2000/svg" viewBox="0 0 400 400">
  <rect width="400" height="400" fill="#ffecd2"/>
  
  <!-- Background layer first, then each layer going forward -->
  <path d="M 0 160 Q 120 110 200 160 Q 280 210 400 140 L 400 400 L 0 400 Z" fill="#e76f51"/>
  <path d="M 0 210 Q 70 170 150 200 Q 250 240 350 180 Q 400 150 400 190 L 400 400 L 0 400 Z" fill="#f4a261"/>
  <path d="M 0 260 Q 100 210 200 260 Q 300 310 400 250 L 400 400 L 0 400 Z" fill="#e9c46a"/>
  <path d="M 0 310 Q 60 270 140 300 Q 220 330 300 280 Q 380 240 400 280 L 400 400 L 0 400 Z" fill="#2a9d8f"/>
  <path d="M 0 360 Q 80 320 160 350 Q 240 380 320 340 Q 400 300 400 380 L 400 400 L 0 400 Z" fill="#264653"/>
</svg>
