<svg xmlns="http://www.w3.org/2000/svg" viewBox="0 0 400 400">
  <rect width="400" height="400" fill="#0f0f0f"/>
  
  <!-- Spikes from bottom -->
  <polygon points="0,400 30,280 60,400" fill="#ff3333"/>
  <polygon points="50,400 90,200 130,400" fill="#ff4444"/>
  <polygon points="110,400 150,150 190,400" fill="#ff5555"/>
  <polygon points="170,400 220,100 270,400" fill="#ff6666"/>
  <polygon points="230,400 280,180 330,400" fill="#ff5555"/>
  <polygon points="290,400 330,250 370,400" fill="#ff4444"/>
  <polygon points="350,400 385,300 420,400" fill="#ff3333"/>
  
  <!-- Spikes from top -->
  <polygon points="20,0 50,150 80,0" fill="#3333ff"/>
  <polygon points="80,0 120,200 160,0" fill="#4444ff"/>
  <polygon points="150,0 200,280 250,0" fill="#5555ff"/>
  <polygon points="240,0 290,180 340,0" fill="#4444ff"/>
  <polygon points="320,0 360,120 400,0" fill="#3333ff"/>
</svg>
