<svg xmlns="http://www.w3.org/2000/svg" viewBox="0 0 400 400">
  <rect width="400" height="400" fill="#f5f5f0"/>
  
  <!-- Maze walls -->
  <g stroke="#1a1a1a" stroke-width="8" stroke-linecap="square" fill="none">
    <!-- Outer boundary fragment -->
    <path d="M 50 50 L 350 50 L 350 150"/>
    <path d="M 50 50 L 50 350 L 150 350"/>
    
    <!-- Inner walls -->
    <path d="M 100 50 L 100 200"/>
    <path d="M 150 100 L 150 250 L 250 250"/>
    <path d="M 200 50 L 200 150 L 300 150"/>
    <path d="M 250 100 L 250 200"/>
    <path d="M 300 200 L 300 300 L 200 300"/>
    <path d="M 100 250 L 100 300"/>
    <path d="M 50 150 L 100 150"/>
    <path d="M 200 350 L 200 300"/>
    <path d="M 250 350 L 350 350 L 350 250"/>
  </g>
  
  <!-- Entrance marker -->
  <circle cx="75" cy="100" r="8" fill="#ff3333"/>
</svg>
