<svg xmlns="http://www.w3.org/2000/svg" viewBox="0 0 400 400">
  <rect width="400" height="400" fill="#0a0a15"/>
  
  <!-- Cell-like shapes with nuclei -->
  <ellipse cx="100" cy="100" rx="70" ry="55" fill="none" stroke="#2a5a4a" stroke-width="2" opacity="0.7"/>
  <circle cx="90" cy="95" r="15" fill="#1a3a2a"/>
  
  <ellipse cx="280" cy="80" rx="60" ry="50" fill="none" stroke="#4a3a5a" stroke-width="2" opacity="0.6"/>
  <circle cx="290" cy="75" r="12" fill="#2a1a3a"/>
  
  <ellipse cx="200" cy="200" rx="90" ry="70" fill="none" stroke="#3a5a5a" stroke-width="2.5" opacity="0.8"/>
  <circle cx="180" cy="190" r="20" fill="#1a3a3a"/>
  <circle cx="220" cy="210" r="8" fill="#1a3a3a" opacity="0.5"/>
  
  <ellipse cx="80" cy="300" rx="55" ry="65" fill="none" stroke="#5a4a3a" stroke-width="2" opacity="0.6"/>
  <circle cx="85" cy="290" r="14" fill="#3a2a1a"/>
  
  <ellipse cx="320" cy="280" rx="65" ry="55" fill="none" stroke="#3a4a5a" stroke-width="2" opacity="0.7"/>
  <circle cx="310" cy="275" r="16" fill="#1a2a3a"/>
  
  <ellipse cx="200" cy="360" rx="80" ry="45" fill="none" stroke="#4a5a3a" stroke-width="2" opacity="0.5"/>
  <circle cx="210" cy="355" r="10" fill="#2a3a1a"/>
  
  <!-- Smaller cells -->
  <ellipse cx="350" cy="180" rx="30" ry="25" fill="none" stroke="#5a5a4a" stroke-width="1.5" opacity="0.4"/>
  <circle cx="355" cy="178" r="6" fill="#3a3a2a"/>
  
  <ellipse cx="50" cy="200" rx="35" ry="30" fill="none" stroke="#4a4a5a" stroke-width="1.5" opacity="0.4"/>
  <circle cx="45" cy="195" r="8" fill="#2a2a3a"/>
</svg>
