<svg xmlns="http://www.w3.org/2000/svg" viewBox="0 0 400 400">
  <rect width="400" height="400" fill="#ffecd2"/>
  
  <!-- Layered hills/waves with distinct colors -->
  <path d="M 0 380 Q 80 340 160 370 Q 240 400 320 360 Q 400 320 400 400 L 0 400 Z" fill="#264653"/>
  <path d="M 0 330 Q 60 290 140 320 Q 220 350 300 300 Q 380 260 400 300 L 400 400 L 0 400 Z" fill="#2a9d8f"/>
  <path d="M 0 270 Q 100 220 200 270 Q 300 320 400 260 L 400 400 L 0 400 Z" fill="#e9c46a"/>
  <path d="M 0 220 Q 70 180 150 210 Q 250 250 350 190 Q 400 160 400 200 L 400 400 L 0 400 Z" fill="#f4a261"/>
  <path d="M 0 160 Q 120 110 200 160 Q 280 210 400 140 L 400 400 L 0 400 Z" fill="#e76f51"/>
</svg>
