<svg xmlns="http://www.w3.org/2000/svg" viewBox="0 0 450 800">
  <rect width="450" height="800" fill="#1a1a2e"/>
  <rect x="-20" y="50" width="200" height="300" fill="#e94560" opacity="0.8"/>
  <rect x="250" y="-30" width="250" height="200" fill="#0f3460" opacity="0.9"/>
  <circle cx="400" cy="500" r="180" fill="#533483" opacity="0.7"/>
  <rect x="100" y="500" width="300" height="400" fill="#16213e" opacity="0.8"/>
  <rect x="50" y="150" width="120" height="80" fill="#e94560"/>
  <rect x="200" y="100" width="80" height="200" fill="#00fff5"/>
  <rect x="300" y="250" width="100" height="100" fill="#ff6b6b"/>
  <circle cx="150" cy="400" r="60" fill="#4ecdc4"/>
  <rect x="20" y="350" width="150" height="40" fill="#ffe66d"/>
  <rect x="280" y="400" width="60" height="150" fill="#95e1d3"/>
  <circle cx="380" cy="300" r="45" fill="#f38181"/>
  <rect x="100" y="550" width="200" height="30" fill="#aa96da"/>
  <rect x="350" y="550" width="80" height="200" fill="#fcbad3"/>
  <ellipse cx="200" cy="650" rx="80" ry="40" fill="#a8d8ea"/>
  <rect x="30" y="80" width="40" height="40" fill="#fff"/>
  <circle cx="250" cy="500" r="35" fill="#f8b500"/>
  <rect x="320" y="700" width="60" height="60" fill="#ff0080"/>
  <circle cx="120" cy="200" r="12" fill="#fff"/>
  <circle cx="350" cy="350" r="10" fill="#fff"/>
  <circle cx="400" cy="450" r="15" fill="#00ff88"/>
  <circle cx="70" cy="350" r="18" fill="#ffaa00"/>
  <line x1="0" y1="200" x2="450" y2="220" stroke="#fff" stroke-width="3" opacity="0.5"/>
  <line x1="100" y1="0" x2="120" y2="800" stroke="#e94560" stroke-width="2" opacity="0.6"/>
  <line x1="300" y1="100" x2="350" y2="700" stroke="#00fff5" stroke-width="4" opacity="0.4"/>
</svg>
