<svg xmlns="http://www.w3.org/2000/svg" viewBox="0 0 400 400">
  <rect width="400" height="400" fill="#e8e8e8"/>
  <!-- Chaotic starting point: 16 rectangles, various positions/sizes/colors -->
  <rect x="23" y="156" width="89" height="34" fill="#b0a0a0"/>
  <rect x="187" y="12" width="45" height="123" fill="#4a4"/>
  <rect x="290" y="267" width="78" height="78" fill="#48c"/>
  <rect x="45" y="310" width="120" height="25" fill="#b8a898"/>
  <rect x="234" y="178" width="56" height="89" fill="#84c"/>
  <rect x="123" y="67" width="34" height="67" fill="#cc4"/>
  <rect x="312" y="45" width="67" height="45" fill="#4cc"/>
  <rect x="67" y="234" width="45" height="56" fill="#a8a8a8"/>
  <rect x="178" y="290" width="89" height="34" fill="#888"/>
  <rect x="256" y="123" width="23" height="98" fill="#a66"/>
  <rect x="12" y="45" width="56" height="78" fill="#6a6"/>
  <rect x="145" y="178" width="67" height="45" fill="#66a"/>
  <rect x="334" y="178" width="45" height="123" fill="#a6a"/>
  <rect x="89" y="123" width="78" height="23" fill="#6aa"/>
  <rect x="200" y="234" width="34" height="67" fill="#aa6"/>
  <rect x="278" y="334" width="98" height="45" fill="#999"/>
</svg>
