<svg xmlns="http://www.w3.org/2000/svg" viewBox="0 0 400 400">
  <defs>
    <linearGradient id="sky" x1="0%" y1="0%" x2="0%" y2="100%">
      <stop offset="0%" style="stop-color:#a8b8c8"/>
      <stop offset="50%" style="stop-color:#c8c0b8"/>
      <stop offset="80%" style="stop-color:#d8c8b0"/>
      <stop offset="100%" style="stop-color:#d0b8a0"/>
    </linearGradient>
  </defs>
  <rect width="400" height="400" fill="url(#sky)"/>

  <!-- Ground plane -->
  <rect y="290" width="400" height="110" fill="#a8a098"/>

  <!-- FAR - distant structures -->
  <rect x="180" y="220" width="18" height="50" fill="#908880"/>
  <rect x="210" y="235" width="14" height="35" fill="#888078"/>
  <rect x="240" y="225" width="20" height="45" fill="#908878"/>
  <rect x="140" y="240" width="25" height="30" fill="#888078"/>
  <rect x="280" y="230" width="16" height="40" fill="#888080"/>

  <!-- MID -->
  <rect x="90" y="210" width="45" height="80" fill="#686870"/>
  <rect x="310" y="200" width="55" height="90" fill="#706068"/>
  <rect x="325" y="255" width="7" height="9" fill="#e8b858"/>
  <rect x="160" y="195" width="35" height="95" fill="#586068"/>
  <!-- Lit window -->
  <rect x="170" y="230" width="8" height="10" fill="#f0c868"/>

  <!-- NEAR -->
  <rect x="30" y="250" width="70" height="100" fill="#484858"/>
  <rect x="250" y="240" width="80" height="110" fill="#584858"/>
  <rect x="340" y="270" width="60" height="80" fill="#505060"/>

  <!-- Foreground -->
  <rect x="120" y="320" width="100" height="30" fill="#787068"/>
  <rect x="200" y="340" width="70" height="25" fill="#686060"/>
</svg>
